# xmcd
#
# Track frame offsets:
#	150
#	14402
#	30720
#	46212
#	58160
#	76005
#	91600
#	109285
#	119932
#	140297
#	155780
#	175840
#	198202
#	218295
#	242455
#	263762
#	282350
#	299530
#	323400
#	336315
#
# Disc length: 4605 seconds
#
# Revision: 1
# Processed by: cddbd v1.5.1PL0 Copyright (c) Steve Scherf et al.
# Submitted via: CDex 1.50Beta5
#
DISCID=1a11fb14
DTITLE=TULIP - Tulip IN VISION-Best Songs From TV-
DYEAR=1900
DGENRE=Pop
TTITLE0=魔法の黄色い靴
TTITLE1=心の旅
TTITLE2=夏色のおもいで
TTITLE3=銀の指環
TTITLE4=青春の影
TTITLE5=ぼくがつくった愛のうた〜いとしのEmily〜
TTITLE6=ブルー・スカイ
TTITLE7=切手のないおくりもの
TTITLE8=虹とスニーカーの頃
TTITLE9=アフリカは午後０時
TTITLE10=Wake Up
TTITLE11=愛の迷路
TTITLE12=愛の嵐
TTITLE13=まるで愛のように
TTITLE14=モーニング・スコール
TTITLE15=We Believe In Magic
TTITLE16=シェア
TTITLE17=サボテンの花
TTITLE18=どこまでも　どこまでも
TTITLE19=青春をわけあおう
EXTD=
EXTT0=
EXTT1=
EXTT2=
EXTT3=
EXTT4=
EXTT5=
EXTT6=
EXTT7=
EXTT8=
EXTT9=
EXTT10=
EXTT11=
EXTT12=
EXTT13=
EXTT14=
EXTT15=
EXTT16=
EXTT17=
EXTT18=
EXTT19=
PLAYORDER=
